<svg width="256" height="256" viewBox="0 0 256 256" fill="none" xmlns="http://www.w3.org/2000/svg">
<path fill-rule="evenodd" clip-rule="evenodd" d="M134.608 37.6127C123.881 36.0869 79.8506 29.1625 61.8142 63.0807C61.6963 63.3154 61.991 63.5501 62.1678 63.3154C84.0945 43.5396 104.017 41.7204 117.692 39.6079C119.46 39.4318 129.657 38.0235 134.608 37.6127C134.608 37.6127 134.608 37.6714 134.608 37.6127Z" fill="#00BA28"/>
<path fill-rule="evenodd" clip-rule="evenodd" d="M204.814 66.3083C207.112 69.5358 208.94 72.646 210.354 75.8735C220.61 93.7128 223.852 116.423 216.779 141.421C211.71 159.261 201.866 176.572 187.308 191.125C187.249 191.184 187.308 191.242 187.367 191.184C204.047 178.332 218.547 161.138 223.557 141.245C231.338 110.261 223.44 84.3237 204.814 66.3083C204.814 66.3083 204.814 66.2496 204.814 66.3083Z" fill="#00BA28"/>
<path fill-rule="evenodd" clip-rule="evenodd" d="M63.9379 185.844C23.0317 139.016 40.2429 70.7685 81.1491 49.4669C81.2081 49.4669 81.1491 49.4082 81.0902 49.4082C-2.31367 79.6881 29.3975 174.753 83.9784 207.263C84.332 207.439 84.4499 207.087 84.2141 206.911C78.5556 201.629 67.6512 191.301 63.9379 185.844Z" fill="#FFB300"/>
<path fill-rule="evenodd" clip-rule="evenodd" d="M126.773 219.234C155.301 216.065 165.675 194.528 174.222 164.425C181.531 138.781 203.339 130.213 211.002 110.731C223.439 79.3356 199.508 43.2462 148.346 38.1409C97.2425 33.0942 50.501 65.8975 45.5498 117.362C40.5987 168.767 78.7935 224.691 126.773 219.234Z" fill="black"/>
<path fill-rule="evenodd" clip-rule="evenodd" d="M117.401 39.6665C24.6844 48.8796 27.1599 144.297 62.6434 184.376C36.7676 141.421 52.5053 54.4544 117.401 39.6665Z" fill="#F7233E"/>
<path fill-rule="evenodd" clip-rule="evenodd" d="M213.532 87.2578C219.898 109.088 219.957 160.258 173.274 198.402C162.959 206.852 144.864 218.177 125.295 219.351C157.713 216.476 166.142 181.149 172.272 160.61C182.528 125.753 213.827 124.11 213.532 87.2578Z" fill="#1E1FFF"/>
<path fill-rule="evenodd" clip-rule="evenodd" d="M210.41 75.8735C232.69 139.661 178.168 215.419 124.707 219.41C193.552 217.532 242.946 131.328 210.41 75.8735Z" fill="#00F4F2"/>
</svg>
